<?xml version="1.0" encoding="utf-8"?>
<svg version="1.1" xmlns:xlink="http://www.w3.org/1999/xlink" width="27px" height="16px" xmlns="http://www.w3.org/2000/svg">
  <g transform="matrix(1 0 0 1 -1194 -36 )">
    <path d="M 26.666015625 13.0375  C 26.888671875 13.1958333333333  27 13.3833333333333  27 13.6  L 27 15.2  C 27 15.4166666666667  26.888671875 15.6041666666667  26.666015625 15.7625  C 26.443359375 15.9208333333333  26.1796875 16  25.875 16  L 1.125 16  C 0.8203125 16  0.556640625 15.9208333333333  0.333984375 15.7625  C 0.111328125 15.6041666666667  0 15.4166666666667  0 15.2  L 0 13.6  C 0 13.3833333333333  0.111328125 13.1958333333333  0.333984375 13.0375  C 0.556640625 12.8791666666667  0.8203125 12.8  1.125 12.8  L 25.875 12.8  C 26.1796875 12.8  26.443359375 12.8791666666667  26.666015625 13.0375  Z M 26.666015625 6.6375  C 26.888671875 6.79583333333333  27 6.98333333333333  27 7.2  L 27 8.8  C 27 9.01666666666667  26.888671875 9.20416666666667  26.666015625 9.3625  C 26.443359375 9.52083333333333  26.1796875 9.6  25.875 9.6  L 1.125 9.6  C 0.8203125 9.6  0.556640625 9.52083333333333  0.333984375 9.3625  C 0.111328125 9.20416666666667  0 9.01666666666667  0 8.8  L 0 7.2  C 0 6.98333333333333  0.111328125 6.79583333333333  0.333984375 6.6375  C 0.556640625 6.47916666666667  0.8203125 6.4  1.125 6.4  L 25.875 6.4  C 26.1796875 6.4  26.443359375 6.47916666666667  26.666015625 6.6375  Z M 26.666015625 0.237500000000001  C 26.888671875 0.395833333333332  27 0.583333333333332  27 0.800000000000001  L 27 2.4  C 27 2.61666666666667  26.888671875 2.80416666666667  26.666015625 2.9625  C 26.443359375 3.12083333333333  26.1796875 3.2  25.875 3.2  L 1.125 3.2  C 0.8203125 3.2  0.556640625 3.12083333333333  0.333984375 2.9625  C 0.111328125 2.80416666666667  0 2.61666666666667  0 2.4  L 0 0.800000000000001  C 0 0.583333333333332  0.111328125 0.395833333333332  0.333984375 0.237500000000001  C 0.556640625 0.0791666666666657  0.8203125 0  1.125 0  L 25.875 0  C 26.1796875 0  26.443359375 0.0791666666666657  26.666015625 0.237500000000001  Z " fill-rule="nonzero" fill="#ffffff" stroke="none" transform="matrix(1 0 0 1 1194 36 )" />
  </g>
</svg>